<svg xmlns="http://www.w3.org/2000/svg" xmlns:xlink="http://www.w3.org/1999/xlink" width="1710.426" height="409.5" viewBox="0 0 1710.426 409.5">
  <defs>
    <linearGradient id="a" x1="656.549" y1="174.286" x2="690.033" y2="196.72" gradientUnits="userSpaceOnUse">
      <stop offset="0.026" stop-color="#ff831d"/>
      <stop offset="1" stop-color="#ff5317"/>
    </linearGradient>
    <linearGradient id="b" x1="651.13" y1="141.192" x2="678.604" y2="162.744" gradientUnits="userSpaceOnUse">
      <stop offset="0" stop-color="#fff35c"/>
      <stop offset="1" stop-color="#ffad1d"/>
    </linearGradient>
    <linearGradient id="c" x1="635.408" y1="168.877" x2="678.1" y2="202.129" gradientUnits="userSpaceOnUse">
      <stop offset="0.051" stop-color="#ffc23b"/>
      <stop offset="0.568" stop-color="#ff9824"/>
      <stop offset="0.911" stop-color="#ff8017"/>
    </linearGradient>
    <linearGradient id="d" x1="689.615" y1="193.375" x2="723.105" y2="215.813" xlink:href="#a"/>
    <linearGradient id="e" x1="684.2" y1="160.285" x2="711.673" y2="181.837" xlink:href="#b"/>
    <linearGradient id="f" x1="668.693" y1="188.135" x2="706.395" y2="217.502" xlink:href="#c"/>
    <linearGradient id="g" x1="618.061" y1="160.285" x2="645.534" y2="181.837" xlink:href="#b"/>
    <linearGradient id="h" x1="602.342" y1="187.97" x2="645.028" y2="221.218" xlink:href="#c"/>
    <linearGradient id="i" x1="623.475" y1="193.377" x2="656.96" y2="215.811" xlink:href="#a"/>
    <linearGradient id="j" x1="651.13" y1="217.563" x2="678.604" y2="239.115" xlink:href="#b"/>
    <linearGradient id="k" x1="-7417.957" y1="8759.147" x2="-7452.717" y2="8762.468" gradientTransform="translate(-10647.189 -1814.875) rotate(-120)" gradientUnits="userSpaceOnUse">
      <stop offset="0.051" stop-color="#ffc23b"/>
      <stop offset="0.911" stop-color="#ff8017"/>
    </linearGradient>
    <linearGradient id="l" x1="-958.031" y1="6842.867" x2="-959.188" y2="6860.188" gradientTransform="translate(-4781.091 -4013.223) rotate(-60)" xlink:href="#a"/>
  </defs>
  <g>
    <rect x="128.282" y="30.713" width="1453.863" height="348.075" rx="43.357" fill="#030a1c"/>
    <g>
      <g>
        <polygon points="681.557 152.089 681.557 209.371 665.025 218.917 665.025 161.635 681.557 152.089" fill="url(#a)"/>
        <polygon points="648.488 152.09 665.023 161.637 681.557 152.09 665.023 142.544 648.488 152.09" fill="url(#b)"/>
        <polygon points="665.025 161.635 665.025 218.917 648.484 209.371 648.484 152.089 665.025 161.635" fill="url(#c)"/>
        <polygon points="714.631 171.18 714.631 228.462 698.09 238.007 698.09 180.726 714.631 171.18" fill="url(#d)"/>
        <polygon points="681.557 171.183 698.092 180.729 714.627 171.183 698.092 161.637 681.557 171.183" fill="url(#e)"/>
        <polygon points="698.09 180.726 698.09 238.007 681.557 228.462 681.557 171.18 698.09 180.726" fill="url(#f)"/>
        <polygon points="615.418 171.183 631.953 180.729 648.488 171.183 631.953 161.637 615.418 171.183" fill="url(#g)"/>
        <polygon points="631.951 180.726 631.951 238.007 615.419 228.462 615.419 171.18 631.951 180.726" fill="url(#h)"/>
        <polygon points="648.484 171.18 648.484 228.462 631.951 238.007 631.951 180.726 648.484 171.18" fill="url(#i)"/>
        <polygon points="648.488 228.461 665.023 238.008 681.557 228.461 665.023 218.915 648.488 228.461" fill="url(#j)"/>
        <polygon points="665.023 257.1 665.023 238.008 648.488 228.461 648.488 247.554 665.023 257.1" fill="url(#k)"/>
        <polygon points="665.023 257.1 681.557 247.554 681.557 228.461 665.023 238.008 665.023 257.1" fill="url(#l)"/>
      </g>
      <g>
        <path d="M758.841,242.868l20.949-86.1h26.186l20.949,86.1H810.658l-4.615-18.944H779.727l-4.618,18.944Zm34.042-71.341-9.9,37.392h19.787Z" fill="#fff"/>
        <path d="M838.539,242.868v-86.1h15.5v86.1Z" fill="#fff"/>
        <path d="M902.3,196.2H881l.15,11.979v34.688h-15.5V181.858H902.3Z" fill="#fff"/>
        <path d="M956.361,228.278v14.589H925.612V194.65H910.36V181.858h15.252V162.914h15.5v18.944h16.728V194.65H941.109v33.628Z" fill="#fff"/>
        <path d="M983.766,226.513v16.646H967.119V226.513Z" fill="#fff"/>
        <path d="M1022.57,181.856v85.616H995.384V253.12h11.687V181.856Zm.565-25.3v16.647h-16.647V156.559Z" fill="#fff"/>
        <path d="M1063.555,244.59q-11.931,0-19.561-5.165a21.238,21.238,0,0,1-9.224-14.759l14.269-3.695a15.072,15.072,0,0,0,2.893,6.766,11.122,11.122,0,0,0,5.04,3.51,19.986,19.986,0,0,0,6.583,1.041,13.508,13.508,0,0,0,7.993-1.9,5.711,5.711,0,0,0,2.586-4.74,4.866,4.866,0,0,0-2.463-4.363,23.472,23.472,0,0,0-7.871-2.523l-3.444-.616a61.786,61.786,0,0,1-11.686-3.382,21.261,21.261,0,0,1-8.484-5.967,14.745,14.745,0,0,1-3.2-9.84,16.24,16.24,0,0,1,6.642-13.96q6.636-4.855,17.462-4.859a29.775,29.775,0,0,1,16.977,4.554,20.955,20.955,0,0,1,8.853,11.928l-14.388,4.429a9.912,9.912,0,0,0-4-6.641,13.333,13.333,0,0,0-7.443-1.968,12.325,12.325,0,0,0-6.763,1.537,4.817,4.817,0,0,0-2.336,4.237,4.684,4.684,0,0,0,2.457,4.364,20.6,20.6,0,0,0,6.642,2.154l3.447.614a75.521,75.521,0,0,1,12.483,3.264,20.869,20.869,0,0,1,8.86,5.781,14.973,14.973,0,0,1,3.257,10.145,17.459,17.459,0,0,1-6.951,14.829Q1075.244,244.591,1063.555,244.59Z" fill="#fff"/>
      </g>
    </g>
  </g>
</svg>
